<?xml version="1.0" encoding="utf-8" ?><svg xmlns="http://www.w3.org/2000/svg" xmlns:xlink="http://www.w3.org/1999/xlink" width="1024" height="1024" viewBox="388 361 262 316"><path fill="#4C66E2" d="M646.656 442.255C646.089 446.979 646.436 460.742 646.419 466.304L646.521 561.894C646.525 571.856 646.633 581.796 646.777 591.756C646.799 593.234 646.854 595.976 645.623 596.88L645.055 597.138C632.913 605.608 619.984 612.315 607.518 620.038C578.528 637.999 548.278 654.939 519.479 673.08C520.17 668.031 519.856 594.953 519.052 592.331L518.423 594.041C516.734 590.77 470.254 564.901 463.762 560.216C462.92 559.608 459.034 557.607 457.877 557.029C457.377 554.077 457.677 541.714 457.667 537.966L457.569 495.99C457.58 492.792 458.048 483.544 457.416 481.119C469.871 473.809 482.242 466.356 494.525 458.759C499.58 455.666 513.378 446.824 518.414 445.006C528.832 450.39 540.552 458.156 550.723 464.37C559.55 469.764 570.703 476.008 578.996 481.816L579.678 482.096C586.83 478.84 595.577 472.924 602.427 468.871C617.162 460.153 631.792 450.727 646.656 442.255Z"/><defs><linearGradient id="gradient_0" gradientUnits="userSpaceOnUse" x1="463.52237" y1="552.28973" x2="516.68201" y2="449.81625"><stop offset="0" stop-color="#5BC5FC"/><stop offset="1" stop-color="#30DBFB"/></linearGradient></defs><path fill="url(#gradient_0)" d="M457.416 481.119C469.871 473.809 482.242 466.356 494.525 458.759C499.58 455.666 513.378 446.824 518.414 445.006C528.832 450.39 540.552 458.156 550.723 464.37C559.55 469.764 570.703 476.008 578.996 481.816C577.947 482.815 577.313 483.613 575.948 484.079L575.669 484.009C573.864 485.818 560.464 493.405 557.493 495.187L519.902 518.025C520.043 518.551 520.185 519.077 520.327 519.602C534.567 528.993 563.153 545.009 576.201 553.51L577.277 553.242C578.184 554.859 578.127 554.068 577.704 555.665C567.761 564.759 546.554 574.603 534.574 582.111C529.133 585.521 524.079 587.719 519.052 592.331L518.423 594.041C516.734 590.77 470.254 564.901 463.762 560.216C462.92 559.608 459.034 557.607 457.877 557.029C457.377 554.077 457.677 541.714 457.667 537.966L457.569 495.99C457.58 492.792 458.048 483.544 457.416 481.119Z"/><path fill="#47B5F9" d="M519.637 517.932L519.902 518.025C520.043 518.551 520.185 519.077 520.327 519.602C534.567 528.993 563.153 545.009 576.201 553.51C557.464 564.177 536.718 576.476 518.763 588.276C512.695 584.957 463.68 555.878 461.162 553.026C461.963 552.949 517.948 519.912 519.637 517.932Z"/><path fill="#9AE4FA" d="M519.102 449.609C530.811 456.286 542.531 463.492 554.072 470.492C559.552 473.816 570.902 480.211 575.669 484.009C573.864 485.818 560.464 493.405 557.493 495.187L519.902 518.025L519.637 517.932C518.953 513.99 519.157 501.659 519.092 497.127C518.867 481.358 519.388 465.387 519.102 449.609Z"/><path fill="#4056D6" d="M457.416 481.119C469.871 473.809 482.242 466.356 494.525 458.759C499.58 455.666 513.378 446.824 518.414 445.006C528.832 450.39 540.552 458.156 550.723 464.37C559.55 469.764 570.703 476.008 578.996 481.816C577.947 482.815 577.313 483.613 575.948 484.079L575.669 484.009C570.902 480.211 559.552 473.816 554.072 470.492C542.531 463.492 530.811 456.286 519.102 449.609C515.497 450.758 503.351 458.024 499.504 460.415C487.238 468.036 473.406 475.835 461.464 483.836L461.232 525.563C461.137 533.962 460.73 544.84 461.162 553.026C463.68 555.878 512.695 584.957 518.763 588.276C536.718 576.476 557.464 564.177 576.201 553.51L577.277 553.242C578.184 554.859 578.127 554.068 577.704 555.665C567.761 564.759 546.554 574.603 534.574 582.111C529.133 585.521 524.079 587.719 519.052 592.331L518.423 594.041C516.734 590.77 470.254 564.901 463.762 560.216C462.92 559.608 459.034 557.607 457.877 557.029C457.377 554.077 457.677 541.714 457.667 537.966L457.569 495.99C457.58 492.792 458.048 483.544 457.416 481.119Z"/><path fill="#333EB7" d="M646.656 442.255C646.089 446.979 646.436 460.742 646.419 466.304L646.521 561.894C646.525 571.856 646.633 581.796 646.777 591.756C646.799 593.234 646.854 595.976 645.623 596.88L645.055 597.138C638.457 592.205 630.794 587.93 623.681 583.734L597.316 568.035C594.156 566.146 580.512 558.612 579.616 555.845C580.155 552.775 580.253 535.105 580.144 531.46C579.698 516.475 580.955 496.597 579.678 482.096C586.83 478.84 595.577 472.924 602.427 468.871C617.162 460.153 631.792 450.727 646.656 442.255Z"/><path fill="#9183F9" d="M579.616 555.845C583.478 557.707 587.446 560.494 591.157 562.76C608.077 573.092 625.124 583.222 642.228 593.243C643.898 594.221 644.984 595.029 645.623 596.88L645.055 597.138C638.457 592.205 630.794 587.93 623.681 583.734L597.316 568.035C594.156 566.146 580.512 558.612 579.616 555.845Z"/><path fill="#3796DE" d="M575.669 484.009L575.948 484.079C577.448 490.681 576.829 507.714 576.63 514.674C576.429 522.845 576.326 531.019 576.32 539.194C576.31 542.682 576.109 550.332 577.277 553.242L576.201 553.51C563.153 545.009 534.567 528.993 520.327 519.602C520.185 519.077 520.043 518.551 519.902 518.025L557.493 495.187C560.464 493.405 573.864 485.818 575.669 484.009Z"/><defs><linearGradient id="gradient_1" gradientUnits="userSpaceOnUse" x1="358.25592" y1="486.52686" x2="452.70041" y2="560.82959"><stop offset="0" stop-color="#3672E2"/><stop offset="1" stop-color="#398DED"/></linearGradient></defs><path fill="url(#gradient_1)" d="M391.793 440.875C400.76 447.452 417.148 456.577 426.987 462.679C434.858 467.561 449.606 477.12 457.416 481.119C458.048 483.544 457.58 492.792 457.569 495.99L457.667 537.966C457.677 541.714 457.377 554.077 457.877 557.029C443.722 566.182 429.337 574.974 414.736 583.397C409.407 586.533 395.702 594.036 391.855 597.307C390.756 594.789 391.062 588.614 391.066 585.701C391.129 539.023 390.9 492.336 391.16 445.659C391.17 443.856 391.115 442.556 391.793 440.875Z"/><path fill="#9183F9" d="M518.648 364.819C523.087 366.773 533.668 373.518 538.193 376.291L574.008 398.215L617.631 424.53C621.596 426.884 644.529 439.947 646.656 442.255C631.792 450.727 617.162 460.153 602.427 468.871C595.577 472.924 586.83 478.84 579.678 482.096L578.996 481.816C570.703 476.008 559.55 469.764 550.723 464.37C540.552 458.156 528.832 450.39 518.414 445.006C518.814 438.781 518.407 430.402 518.516 423.998C518.848 404.52 517.882 384.232 518.648 364.819Z"/><path fill="#333EB7" d="M391.793 440.875C404.939 433.831 418.566 425.16 431.428 417.362L485.093 384.917C495.586 378.508 507.93 370.569 518.648 364.819C517.882 384.232 518.848 404.52 518.516 423.998C518.407 430.402 518.814 438.781 518.414 445.006C513.378 446.824 499.58 455.666 494.525 458.759C482.242 466.356 469.871 473.809 457.416 481.119C449.606 477.12 434.858 467.561 426.987 462.679C417.148 456.577 400.76 447.452 391.793 440.875Z"/><path fill="#333EB7" d="M457.877 557.029C459.034 557.607 462.92 559.608 463.762 560.216C470.254 564.901 516.734 590.77 518.423 594.041L518.506 643.859C518.53 651.565 518.926 665.342 518.098 672.736C511.617 669.484 497.451 660.194 490.737 656.151L428.715 619.318C418.862 613.395 401.578 602.158 391.855 597.307C395.702 594.036 409.407 586.533 414.736 583.397C429.337 574.974 443.722 566.182 457.877 557.029Z"/><path fill="#9183F9" fill-opacity="0.8509804" d="M519.052 592.331C519.856 594.953 520.17 668.031 519.479 673.08L518.098 672.736C518.926 665.342 518.53 651.565 518.506 643.859L518.423 594.041L519.052 592.331Z"/></svg>